<mxfile host="Electron" modified="2024-05-19T14:56:15.639Z" agent="Mozilla/5.0 (Windows NT 10.0; Win64; x64) AppleWebKit/537.36 (KHTML, like Gecko) draw.io/24.4.0 Chrome/120.0.6099.109 Electron/28.1.0 Safari/537.36" etag="OnlJRLUCo-r_VAtO8X9q" version="24.4.0" type="device" pages="2">
  <diagram id="6a731a19-8d31-9384-78a2-239565b7b9f0" name="_Version polling Vbatt">
    <mxGraphModel dx="1847" dy="431" grid="1" gridSize="10" guides="1" tooltips="1" connect="1" arrows="1" fold="1" page="1" pageScale="1" pageWidth="1169" pageHeight="827" background="none" math="0" shadow="0">
      <root>
        <mxCell id="0" />
        <mxCell id="1" parent="0" />
        <mxCell id="2" value="main" style="shape=mxgraph.flowchart.terminator;strokeWidth=2;gradientColor=none;gradientDirection=north;fontStyle=0;html=1;" parent="1" vertex="1">
          <mxGeometry x="-929.8899999999999" y="10" width="120" height="30" as="geometry" />
        </mxCell>
        <mxCell id="vFcfeuhQWlRrU4Buawmt-17" style="edgeStyle=orthogonalEdgeStyle;rounded=0;orthogonalLoop=1;jettySize=auto;html=1;" parent="1" source="6" edge="1">
          <mxGeometry relative="1" as="geometry">
            <mxPoint x="-870.0099999999998" y="700" as="targetPoint" />
          </mxGeometry>
        </mxCell>
        <mxCell id="6" value="GO?" style="shape=mxgraph.flowchart.decision;strokeWidth=2;gradientColor=none;gradientDirection=north;fontStyle=0;html=1;" parent="1" vertex="1">
          <mxGeometry x="-919.0099999999999" y="378.93" width="98" height="57" as="geometry" />
        </mxCell>
        <mxCell id="QqgMoPIlx3s6HekkN53h-56" value="&lt;span style=&quot;text-wrap: nowrap;&quot;&gt;GPIO_init&lt;/span&gt;&lt;div&gt;&lt;div style=&quot;text-wrap: nowrap;&quot;&gt;timer6 en base de temps 10 ms&lt;/div&gt;&lt;div style=&quot;text-wrap: nowrap;&quot;&gt;ADC1 en single 8 bits sur Vbatt&lt;/div&gt;&lt;div style=&quot;text-wrap: nowrap;&quot;&gt;ADC2 en single 12 bits&lt;/div&gt;&lt;div style=&quot;text-wrap: nowrap;&quot;&gt;timer2 en PWM 1kHz, RC=___ (dÃ©pends de la vitesse voulue)&lt;/div&gt;&lt;div style=&quot;text-wrap: nowrap;&quot;&gt;&lt;span style=&quot;background-color: initial;&quot;&gt;UART2_init 115200 baud&lt;/span&gt;&lt;br&gt;&lt;/div&gt;&lt;/div&gt;&lt;div style=&quot;text-wrap: nowrap;&quot;&gt;&lt;span style=&quot;background-color: initial;&quot;&gt;PWM_FD = ___&lt;/span&gt;&lt;/div&gt;&lt;div style=&quot;text-wrap: nowrap;&quot;&gt;&lt;span style=&quot;background-color: initial;&quot;&gt;&lt;br&gt;&lt;/span&gt;&lt;/div&gt;&lt;div style=&quot;text-wrap: nowrap;&quot;&gt;&lt;div&gt;variable globale uint_8 mesures_IR = 0&lt;/div&gt;&lt;div&gt;variable globale uint_8 nb_conversions = 0&lt;/div&gt;&lt;div&gt;variable globale uint_8 flag_blanc = 1&lt;/div&gt;&lt;div&gt;variable globale uint_8 whites = [0, 0, 0, 0]&lt;/div&gt;&lt;div&gt;variable globale vbatt = MAX_VBATT&lt;/div&gt;&lt;div&gt;variable globale etat = BLANC&lt;/div&gt;&lt;/div&gt;" style="rounded=0;whiteSpace=wrap;html=1;" parent="1" vertex="1">
          <mxGeometry x="-1056.26" y="70" width="372.75" height="224.93" as="geometry" />
        </mxCell>
        <mxCell id="QqgMoPIlx3s6HekkN53h-62" value="" style="endArrow=classic;html=1;rounded=0;exitX=0.5;exitY=1;exitDx=0;exitDy=0;exitPerimeter=0;entryX=0.5;entryY=0;entryDx=0;entryDy=0;" parent="1" source="2" target="QqgMoPIlx3s6HekkN53h-56" edge="1">
          <mxGeometry width="50" height="50" relative="1" as="geometry">
            <mxPoint x="-688.8599999999999" y="303.43" as="sourcePoint" />
            <mxPoint x="-638.86" y="253.43" as="targetPoint" />
          </mxGeometry>
        </mxCell>
        <mxCell id="vFcfeuhQWlRrU4Buawmt-10" style="edgeStyle=orthogonalEdgeStyle;rounded=0;orthogonalLoop=1;jettySize=auto;html=1;" parent="1" source="QqgMoPIlx3s6HekkN53h-63" edge="1">
          <mxGeometry relative="1" as="geometry">
            <mxPoint x="-950" y="407.43000000000006" as="targetPoint" />
          </mxGeometry>
        </mxCell>
        <mxCell id="QqgMoPIlx3s6HekkN53h-63" value="" style="ellipse;whiteSpace=wrap;html=1;" parent="1" vertex="1">
          <mxGeometry x="-930.0899999999999" y="402.43" width="10" height="10" as="geometry" />
        </mxCell>
        <mxCell id="vFcfeuhQWlRrU4Buawmt-11" style="edgeStyle=orthogonalEdgeStyle;rounded=0;orthogonalLoop=1;jettySize=auto;html=1;" parent="1" source="QqgMoPIlx3s6HekkN53h-66" edge="1">
          <mxGeometry relative="1" as="geometry">
            <mxPoint x="-870" y="330" as="targetPoint" />
            <Array as="points">
              <mxPoint x="-998" y="330" />
            </Array>
          </mxGeometry>
        </mxCell>
        <mxCell id="QqgMoPIlx3s6HekkN53h-66" value="PWM_D = 0&lt;div&gt;PWM_G = 0&lt;br&gt;&lt;/div&gt;" style="rounded=0;whiteSpace=wrap;html=1;" parent="1" vertex="1">
          <mxGeometry x="-1040" y="393.93" width="84.15" height="46.07" as="geometry" />
        </mxCell>
        <mxCell id="QqgMoPIlx3s6HekkN53h-87" value="Vbatt&amp;lt;Seuil" style="shape=mxgraph.flowchart.decision;strokeWidth=2;gradientColor=none;gradientDirection=north;fontStyle=0;html=1;" parent="1" vertex="1">
          <mxGeometry x="-919.5999999999999" y="704.93" width="98" height="57" as="geometry" />
        </mxCell>
        <mxCell id="QqgMoPIlx3s6HekkN53h-101" style="edgeStyle=orthogonalEdgeStyle;rounded=0;orthogonalLoop=1;jettySize=auto;html=1;exitX=0;exitY=0.5;exitDx=0;exitDy=0;entryX=0.5;entryY=0;entryDx=0;entryDy=0;" parent="1" source="QqgMoPIlx3s6HekkN53h-88" target="QqgMoPIlx3s6HekkN53h-90" edge="1">
          <mxGeometry relative="1" as="geometry" />
        </mxCell>
        <mxCell id="QqgMoPIlx3s6HekkN53h-88" value="" style="ellipse;whiteSpace=wrap;html=1;" parent="1" vertex="1">
          <mxGeometry x="-926.02" y="728.43" width="10" height="10" as="geometry" />
        </mxCell>
        <mxCell id="QqgMoPIlx3s6HekkN53h-100" style="edgeStyle=orthogonalEdgeStyle;rounded=0;orthogonalLoop=1;jettySize=auto;html=1;" parent="1" edge="1">
          <mxGeometry relative="1" as="geometry">
            <mxPoint x="-771.1999999999999" y="784.93" as="targetPoint" />
            <mxPoint x="-821.0999999999999" y="733.93" as="sourcePoint" />
          </mxGeometry>
        </mxCell>
        <mxCell id="QqgMoPIlx3s6HekkN53h-103" style="rounded=0;orthogonalLoop=1;jettySize=auto;html=1;exitX=0.5;exitY=1;exitDx=0;exitDy=0;entryX=0.5;entryY=1;entryDx=0;entryDy=0;endArrow=none;endFill=0;" parent="1" source="QqgMoPIlx3s6HekkN53h-90" target="QqgMoPIlx3s6HekkN53h-92" edge="1">
          <mxGeometry relative="1" as="geometry">
            <Array as="points">
              <mxPoint x="-871.1999999999999" y="824.93" />
            </Array>
          </mxGeometry>
        </mxCell>
        <mxCell id="QqgMoPIlx3s6HekkN53h-90" value="LED off" style="rounded=0;whiteSpace=wrap;html=1;" parent="1" vertex="1">
          <mxGeometry x="-1012.6399999999999" y="785.93" width="102.63" height="27" as="geometry" />
        </mxCell>
        <mxCell id="QqgMoPIlx3s6HekkN53h-92" value="LED on" style="rounded=0;whiteSpace=wrap;html=1;" parent="1" vertex="1">
          <mxGeometry x="-831.1999999999999" y="785.93" width="102.63" height="27" as="geometry" />
        </mxCell>
        <mxCell id="u2Y0R6N3QSawzIc0n8wY-17" style="edgeStyle=orthogonalEdgeStyle;rounded=0;orthogonalLoop=1;jettySize=auto;html=1;entryX=0.5;entryY=0;entryDx=0;entryDy=0;" parent="1" source="QqgMoPIlx3s6HekkN53h-94" target="u2Y0R6N3QSawzIc0n8wY-6" edge="1">
          <mxGeometry relative="1" as="geometry" />
        </mxCell>
        <mxCell id="QqgMoPIlx3s6HekkN53h-94" value="printf ( vbatt )" style="rounded=0;whiteSpace=wrap;html=1;" parent="1" vertex="1">
          <mxGeometry x="-921.1999999999999" y="854.93" width="102.63" height="27" as="geometry" />
        </mxCell>
        <mxCell id="QqgMoPIlx3s6HekkN53h-104" value="" style="endArrow=classic;html=1;rounded=0;entryX=0.5;entryY=0;entryDx=0;entryDy=0;" parent="1" target="QqgMoPIlx3s6HekkN53h-94" edge="1">
          <mxGeometry width="50" height="50" relative="1" as="geometry">
            <mxPoint x="-871.0999999999999" y="824.93" as="sourcePoint" />
            <mxPoint x="-641.1999999999999" y="644.93" as="targetPoint" />
          </mxGeometry>
        </mxCell>
        <mxCell id="QqgMoPIlx3s6HekkN53h-108" value="" style="endArrow=none;html=1;rounded=0;edgeStyle=orthogonalEdgeStyle;exitX=0.54;exitY=0.948;exitDx=0;exitDy=0;exitPerimeter=0;" parent="1" source="u2Y0R6N3QSawzIc0n8wY-14" edge="1">
          <mxGeometry width="50" height="50" relative="1" as="geometry">
            <mxPoint x="-871.0999999999999" y="1204.93" as="sourcePoint" />
            <mxPoint x="-990" y="330" as="targetPoint" />
            <Array as="points">
              <mxPoint x="-871" y="1194" />
              <mxPoint x="-871" y="1255" />
              <mxPoint x="-1070" y="1255" />
              <mxPoint x="-1070" y="330" />
              <mxPoint x="-1000" y="330" />
            </Array>
          </mxGeometry>
        </mxCell>
        <mxCell id="OXJlBvm1eEPTtm0zNHvy-9" style="edgeStyle=orthogonalEdgeStyle;rounded=0;orthogonalLoop=1;jettySize=auto;html=1;entryX=0.5;entryY=0;entryDx=0;entryDy=0;" parent="1" source="-0f1KGy7K0RT9wXaaAmC-10" target="-0f1KGy7K0RT9wXaaAmC-11" edge="1">
          <mxGeometry relative="1" as="geometry" />
        </mxCell>
        <mxCell id="-0f1KGy7K0RT9wXaaAmC-10" value="Calback EXt BP1" style="shape=mxgraph.flowchart.terminator;strokeWidth=2;gradientColor=none;gradientDirection=north;fontStyle=0;html=1;" parent="1" vertex="1">
          <mxGeometry x="910" y="65.93" width="120" height="30" as="geometry" />
        </mxCell>
        <mxCell id="-0f1KGy7K0RT9wXaaAmC-11" value="GO ^= 1" style="rounded=0;whiteSpace=wrap;html=1;" parent="1" vertex="1">
          <mxGeometry x="937.3800000000001" y="141.75" width="65.25" height="27" as="geometry" />
        </mxCell>
        <mxCell id="-0f1KGy7K0RT9wXaaAmC-14" value="end" style="shape=mxgraph.flowchart.terminator;strokeWidth=2;gradientColor=none;gradientDirection=north;fontStyle=0;html=1;" parent="1" vertex="1">
          <mxGeometry x="950.01" y="199.43" width="40" height="23.5" as="geometry" />
        </mxCell>
        <mxCell id="-0f1KGy7K0RT9wXaaAmC-15" style="edgeStyle=orthogonalEdgeStyle;rounded=0;orthogonalLoop=1;jettySize=auto;html=1;exitX=0.5;exitY=1;exitDx=0;exitDy=0;entryX=0.5;entryY=0;entryDx=0;entryDy=0;entryPerimeter=0;" parent="1" source="-0f1KGy7K0RT9wXaaAmC-11" target="-0f1KGy7K0RT9wXaaAmC-14" edge="1">
          <mxGeometry relative="1" as="geometry" />
        </mxCell>
        <mxCell id="-0f1KGy7K0RT9wXaaAmC-17" value="Calback Tim6" style="shape=mxgraph.flowchart.terminator;strokeWidth=2;gradientColor=none;gradientDirection=north;fontStyle=0;html=1;" parent="1" vertex="1">
          <mxGeometry x="324.5" y="65.93" width="120" height="30" as="geometry" />
        </mxCell>
        <mxCell id="-0f1KGy7K0RT9wXaaAmC-19" value="end" style="shape=mxgraph.flowchart.terminator;strokeWidth=2;gradientColor=none;gradientDirection=north;fontStyle=0;html=1;" parent="1" vertex="1">
          <mxGeometry x="364.5" y="414.35999999999996" width="40" height="23.5" as="geometry" />
        </mxCell>
        <mxCell id="XtA0T4MdMRO-vLLLd8cx-9" style="edgeStyle=orthogonalEdgeStyle;rounded=0;orthogonalLoop=1;jettySize=auto;html=1;entryX=0.5;entryY=0;entryDx=0;entryDy=0;entryPerimeter=0;" parent="1" source="QqgMoPIlx3s6HekkN53h-56" target="6" edge="1">
          <mxGeometry relative="1" as="geometry" />
        </mxCell>
        <mxCell id="u2Y0R6N3QSawzIc0n8wY-6" value="// avancer tout droit&lt;div&gt;PWM_D = PWM_FW;&lt;/div&gt;&lt;div&gt;PWM_G = PWM_FW;&lt;/div&gt;" style="rounded=0;whiteSpace=wrap;html=1;" parent="1" vertex="1">
          <mxGeometry x="-935.92" y="914.93" width="131.81" height="60.5" as="geometry" />
        </mxCell>
        <mxCell id="u2Y0R6N3QSawzIc0n8wY-7" style="edgeStyle=orthogonalEdgeStyle;rounded=0;orthogonalLoop=1;jettySize=auto;html=1;entryX=0.5;entryY=0;entryDx=0;entryDy=0;" parent="1" source="u2Y0R6N3QSawzIc0n8wY-8" target="u2Y0R6N3QSawzIc0n8wY-13" edge="1">
          <mxGeometry relative="1" as="geometry" />
        </mxCell>
        <mxCell id="u2Y0R6N3QSawzIc0n8wY-8" value="mesures_IR &amp;gt; 0" style="shape=mxgraph.flowchart.decision;strokeWidth=2;gradientColor=none;gradientDirection=north;fontStyle=0;html=1;" parent="1" vertex="1">
          <mxGeometry x="-945.05" y="1005.43" width="150.07" height="57" as="geometry" />
        </mxCell>
        <mxCell id="u2Y0R6N3QSawzIc0n8wY-9" style="edgeStyle=orthogonalEdgeStyle;rounded=0;orthogonalLoop=1;jettySize=auto;html=1;entryX=0.5;entryY=0;entryDx=0;entryDy=0;entryPerimeter=0;" parent="1" source="u2Y0R6N3QSawzIc0n8wY-6" target="u2Y0R6N3QSawzIc0n8wY-8" edge="1">
          <mxGeometry relative="1" as="geometry" />
        </mxCell>
        <mxCell id="vFcfeuhQWlRrU4Buawmt-7" style="edgeStyle=orthogonalEdgeStyle;rounded=0;orthogonalLoop=1;jettySize=auto;html=1;" parent="1" source="u2Y0R6N3QSawzIc0n8wY-11" edge="1">
          <mxGeometry relative="1" as="geometry">
            <mxPoint x="-870" y="1250" as="targetPoint" />
            <Array as="points">
              <mxPoint x="-680" y="1034" />
              <mxPoint x="-680" y="1250" />
            </Array>
          </mxGeometry>
        </mxCell>
        <mxCell id="u2Y0R6N3QSawzIc0n8wY-11" value="" style="ellipse;whiteSpace=wrap;html=1;" parent="1" vertex="1">
          <mxGeometry x="-794.9799999999999" y="1028.93" width="10" height="10" as="geometry" />
        </mxCell>
        <mxCell id="u2Y0R6N3QSawzIc0n8wY-12" style="edgeStyle=orthogonalEdgeStyle;rounded=0;orthogonalLoop=1;jettySize=auto;html=1;entryX=0.5;entryY=0;entryDx=0;entryDy=0;" parent="1" source="u2Y0R6N3QSawzIc0n8wY-13" target="u2Y0R6N3QSawzIc0n8wY-14" edge="1">
          <mxGeometry relative="1" as="geometry" />
        </mxCell>
        <mxCell id="u2Y0R6N3QSawzIc0n8wY-13" value="// arrÃªt&lt;div&gt;&lt;div&gt;PWM_D = 0;&lt;/div&gt;&lt;div&gt;PWM_G = 0;&lt;/div&gt;&lt;/div&gt;" style="rounded=0;whiteSpace=wrap;html=1;" parent="1" vertex="1">
          <mxGeometry x="-935.92" y="1085.43" width="131.81" height="50" as="geometry" />
        </mxCell>
        <mxCell id="u2Y0R6N3QSawzIc0n8wY-14" value="// correction de trajectoire" style="rounded=0;whiteSpace=wrap;html=1;" parent="1" vertex="1">
          <mxGeometry x="-943.5" y="1165.43" width="146.97" height="30" as="geometry" />
        </mxCell>
        <mxCell id="u2Y0R6N3QSawzIc0n8wY-19" value="// correction de trajectoire" style="rounded=0;whiteSpace=wrap;html=1;" parent="1" vertex="1">
          <mxGeometry x="-199.98000000000008" y="65.93" width="146.97" height="30" as="geometry" />
        </mxCell>
        <mxCell id="u2Y0R6N3QSawzIc0n8wY-26" style="edgeStyle=orthogonalEdgeStyle;rounded=0;orthogonalLoop=1;jettySize=auto;html=1;entryX=0.5;entryY=0;entryDx=0;entryDy=0;" parent="1" source="u2Y0R6N3QSawzIc0n8wY-21" target="u2Y0R6N3QSawzIc0n8wY-23" edge="1">
          <mxGeometry relative="1" as="geometry" />
        </mxCell>
        <mxCell id="u2Y0R6N3QSawzIc0n8wY-21" value="mesures_IR = 0001" style="shape=mxgraph.flowchart.decision;strokeWidth=2;gradientColor=none;gradientDirection=north;fontStyle=0;html=1;" parent="1" vertex="1">
          <mxGeometry x="-204.24999999999994" y="140.93" width="155.51" height="57" as="geometry" />
        </mxCell>
        <mxCell id="u2Y0R6N3QSawzIc0n8wY-22" style="edgeStyle=orthogonalEdgeStyle;rounded=0;orthogonalLoop=1;jettySize=auto;html=1;entryX=0.5;entryY=0;entryDx=0;entryDy=0;entryPerimeter=0;" parent="1" source="u2Y0R6N3QSawzIc0n8wY-19" target="u2Y0R6N3QSawzIc0n8wY-21" edge="1">
          <mxGeometry relative="1" as="geometry" />
        </mxCell>
        <mxCell id="u2Y0R6N3QSawzIc0n8wY-27" style="edgeStyle=orthogonalEdgeStyle;rounded=0;orthogonalLoop=1;jettySize=auto;html=1;" parent="1" source="u2Y0R6N3QSawzIc0n8wY-23" target="u2Y0R6N3QSawzIc0n8wY-24" edge="1">
          <mxGeometry relative="1" as="geometry" />
        </mxCell>
        <mxCell id="u2Y0R6N3QSawzIc0n8wY-23" value="&lt;div style=&quot;text-wrap: nowrap;&quot;&gt;PWM_ = 0&lt;/div&gt;" style="rounded=0;whiteSpace=wrap;html=1;" parent="1" vertex="1">
          <mxGeometry x="-175.73999999999995" y="236.18" width="98.49" height="26.5" as="geometry" />
        </mxCell>
        <mxCell id="u2Y0R6N3QSawzIc0n8wY-28" style="edgeStyle=orthogonalEdgeStyle;rounded=0;orthogonalLoop=1;jettySize=auto;html=1;" parent="1" source="u2Y0R6N3QSawzIc0n8wY-24" edge="1">
          <mxGeometry relative="1" as="geometry">
            <mxPoint x="-126.49499999999983" y="345.93" as="targetPoint" />
          </mxGeometry>
        </mxCell>
        <mxCell id="u2Y0R6N3QSawzIc0n8wY-24" value="&lt;div style=&quot;text-wrap: nowrap;&quot;&gt;delai 0,5s&lt;/div&gt;" style="rounded=0;whiteSpace=wrap;html=1;" parent="1" vertex="1">
          <mxGeometry x="-175.73999999999995" y="289.43" width="98.49" height="26.5" as="geometry" />
        </mxCell>
        <mxCell id="u2Y0R6N3QSawzIc0n8wY-31" style="edgeStyle=orthogonalEdgeStyle;rounded=0;orthogonalLoop=1;jettySize=auto;html=1;" parent="1" source="u2Y0R6N3QSawzIc0n8wY-25" edge="1">
          <mxGeometry relative="1" as="geometry">
            <mxPoint x="-126.49499999999983" y="425.93" as="targetPoint" />
          </mxGeometry>
        </mxCell>
        <mxCell id="u2Y0R6N3QSawzIc0n8wY-25" value="&lt;div style=&quot;text-wrap: nowrap;&quot;&gt;DIS1 = 1&lt;/div&gt;" style="rounded=0;whiteSpace=wrap;html=1;" parent="1" vertex="1">
          <mxGeometry x="-175.73999999999995" y="346.43" width="98.49" height="26.5" as="geometry" />
        </mxCell>
        <mxCell id="u2Y0R6N3QSawzIc0n8wY-30" style="edgeStyle=orthogonalEdgeStyle;rounded=0;orthogonalLoop=1;jettySize=auto;html=1;" parent="1" source="u2Y0R6N3QSawzIc0n8wY-29" edge="1">
          <mxGeometry relative="1" as="geometry">
            <mxPoint x="-129.97999999999996" y="395.93" as="targetPoint" />
            <Array as="points">
              <mxPoint x="-259.98" y="169.93" />
              <mxPoint x="-259.98" y="395.93" />
            </Array>
          </mxGeometry>
        </mxCell>
        <mxCell id="u2Y0R6N3QSawzIc0n8wY-29" value="" style="ellipse;whiteSpace=wrap;html=1;" parent="1" vertex="1">
          <mxGeometry x="-214.24999999999994" y="164.43" width="10" height="10" as="geometry" />
        </mxCell>
        <mxCell id="u2Y0R6N3QSawzIc0n8wY-32" style="edgeStyle=orthogonalEdgeStyle;rounded=0;orthogonalLoop=1;jettySize=auto;html=1;entryX=0.5;entryY=0;entryDx=0;entryDy=0;" parent="1" source="u2Y0R6N3QSawzIc0n8wY-33" target="u2Y0R6N3QSawzIc0n8wY-35" edge="1">
          <mxGeometry relative="1" as="geometry" />
        </mxCell>
        <mxCell id="u2Y0R6N3QSawzIc0n8wY-33" value="mesures_IR = 0010" style="shape=mxgraph.flowchart.decision;strokeWidth=2;gradientColor=none;gradientDirection=north;fontStyle=0;html=1;" parent="1" vertex="1">
          <mxGeometry x="-204.24999999999994" y="425.93" width="155.51" height="57" as="geometry" />
        </mxCell>
        <mxCell id="u2Y0R6N3QSawzIc0n8wY-34" style="edgeStyle=orthogonalEdgeStyle;rounded=0;orthogonalLoop=1;jettySize=auto;html=1;" parent="1" source="u2Y0R6N3QSawzIc0n8wY-35" target="u2Y0R6N3QSawzIc0n8wY-37" edge="1">
          <mxGeometry relative="1" as="geometry" />
        </mxCell>
        <mxCell id="u2Y0R6N3QSawzIc0n8wY-35" value="&lt;div style=&quot;text-wrap: nowrap;&quot;&gt;DIS2 = 0&lt;/div&gt;" style="rounded=0;whiteSpace=wrap;html=1;" parent="1" vertex="1">
          <mxGeometry x="-175.73999999999995" y="521.18" width="98.49" height="26.5" as="geometry" />
        </mxCell>
        <mxCell id="u2Y0R6N3QSawzIc0n8wY-36" style="edgeStyle=orthogonalEdgeStyle;rounded=0;orthogonalLoop=1;jettySize=auto;html=1;" parent="1" source="u2Y0R6N3QSawzIc0n8wY-37" edge="1">
          <mxGeometry relative="1" as="geometry">
            <mxPoint x="-126.49499999999983" y="630.93" as="targetPoint" />
          </mxGeometry>
        </mxCell>
        <mxCell id="u2Y0R6N3QSawzIc0n8wY-37" value="&lt;div style=&quot;text-wrap: nowrap;&quot;&gt;delai 0,5s&lt;/div&gt;" style="rounded=0;whiteSpace=wrap;html=1;" parent="1" vertex="1">
          <mxGeometry x="-175.73999999999995" y="574.43" width="98.49" height="26.5" as="geometry" />
        </mxCell>
        <mxCell id="u2Y0R6N3QSawzIc0n8wY-38" style="edgeStyle=orthogonalEdgeStyle;rounded=0;orthogonalLoop=1;jettySize=auto;html=1;" parent="1" source="u2Y0R6N3QSawzIc0n8wY-39" edge="1">
          <mxGeometry relative="1" as="geometry">
            <mxPoint x="-126.49499999999983" y="710.93" as="targetPoint" />
          </mxGeometry>
        </mxCell>
        <mxCell id="u2Y0R6N3QSawzIc0n8wY-39" value="&lt;div style=&quot;text-wrap: nowrap;&quot;&gt;DIS2 = 1&lt;/div&gt;" style="rounded=0;whiteSpace=wrap;html=1;" parent="1" vertex="1">
          <mxGeometry x="-175.73999999999995" y="631.43" width="98.49" height="26.5" as="geometry" />
        </mxCell>
        <mxCell id="u2Y0R6N3QSawzIc0n8wY-40" style="edgeStyle=orthogonalEdgeStyle;rounded=0;orthogonalLoop=1;jettySize=auto;html=1;" parent="1" source="u2Y0R6N3QSawzIc0n8wY-41" edge="1">
          <mxGeometry relative="1" as="geometry">
            <mxPoint x="-129.97999999999996" y="680.93" as="targetPoint" />
            <Array as="points">
              <mxPoint x="-259.98" y="454.93" />
              <mxPoint x="-259.98" y="680.93" />
            </Array>
          </mxGeometry>
        </mxCell>
        <mxCell id="u2Y0R6N3QSawzIc0n8wY-41" value="" style="ellipse;whiteSpace=wrap;html=1;" parent="1" vertex="1">
          <mxGeometry x="-214.24999999999994" y="449.43" width="10" height="10" as="geometry" />
        </mxCell>
        <mxCell id="u2Y0R6N3QSawzIc0n8wY-42" value="" style="endArrow=none;dashed=1;html=1;dashPattern=1 3;strokeWidth=2;rounded=0;" parent="1" edge="1">
          <mxGeometry width="50" height="50" relative="1" as="geometry">
            <mxPoint x="-126.89999999999998" y="785.93" as="sourcePoint" />
            <mxPoint x="-126.65999999999997" y="725.93" as="targetPoint" />
          </mxGeometry>
        </mxCell>
        <mxCell id="u2Y0R6N3QSawzIc0n8wY-48" value="tourner a gauche" style="text;html=1;align=center;verticalAlign=middle;whiteSpace=wrap;rounded=0;" parent="1" vertex="1">
          <mxGeometry x="-48.74000000000001" y="269.43" width="60" height="30" as="geometry" />
        </mxCell>
        <mxCell id="u2Y0R6N3QSawzIc0n8wY-49" value="tourner a droite" style="text;html=1;align=center;verticalAlign=middle;whiteSpace=wrap;rounded=0;" parent="1" vertex="1">
          <mxGeometry x="-69.99999999999999" y="565.93" width="60" height="30" as="geometry" />
        </mxCell>
        <mxCell id="cPcfAjtjWZPND-h-7DuE-8" value="Calback ADC1" style="shape=mxgraph.flowchart.terminator;strokeWidth=2;gradientColor=none;gradientDirection=north;fontStyle=0;html=1;" parent="1" vertex="1">
          <mxGeometry x="397.51" y="854.93" width="120" height="30" as="geometry" />
        </mxCell>
        <mxCell id="cPcfAjtjWZPND-h-7DuE-48" style="edgeStyle=orthogonalEdgeStyle;rounded=0;orthogonalLoop=1;jettySize=auto;html=1;entryX=0;entryY=0.5;entryDx=0;entryDy=0;" parent="1" source="cPcfAjtjWZPND-h-7DuE-9" target="cPcfAjtjWZPND-h-7DuE-60" edge="1">
          <mxGeometry relative="1" as="geometry">
            <mxPoint x="185.13499999999976" y="1314.93" as="targetPoint" />
            <Array as="points">
              <mxPoint x="184.75" y="1370.93" />
            </Array>
          </mxGeometry>
        </mxCell>
        <mxCell id="cPcfAjtjWZPND-h-7DuE-9" value="&lt;div style=&quot;text-wrap: nowrap;&quot;&gt;mesures_IR |= 1 &amp;lt;&amp;lt; nb_conversions&lt;/div&gt;" style="rounded=0;whiteSpace=wrap;html=1;" parent="1" vertex="1">
          <mxGeometry x="82.37999999999998" y="1221.43" width="205.51" height="32.5" as="geometry" />
        </mxCell>
        <mxCell id="cPcfAjtjWZPND-h-7DuE-12" style="edgeStyle=orthogonalEdgeStyle;rounded=0;orthogonalLoop=1;jettySize=auto;html=1;entryX=0.5;entryY=0;entryDx=0;entryDy=0;" parent="1" source="cPcfAjtjWZPND-h-7DuE-10" target="cPcfAjtjWZPND-h-7DuE-9" edge="1">
          <mxGeometry relative="1" as="geometry" />
        </mxCell>
        <mxCell id="cPcfAjtjWZPND-h-7DuE-10" value="resultat_adc - whites[nb_conversions] &amp;gt; seuil" style="shape=mxgraph.flowchart.decision;strokeWidth=2;gradientColor=none;gradientDirection=north;fontStyle=0;html=1;" parent="1" vertex="1">
          <mxGeometry x="34.940000000000055" y="1134.93" width="300.39" height="67" as="geometry" />
        </mxCell>
        <mxCell id="cPcfAjtjWZPND-h-7DuE-24" style="edgeStyle=orthogonalEdgeStyle;rounded=0;orthogonalLoop=1;jettySize=auto;html=1;" parent="1" source="cPcfAjtjWZPND-h-7DuE-13" edge="1">
          <mxGeometry relative="1" as="geometry">
            <mxPoint x="182.70000000000005" y="1271.43" as="targetPoint" />
            <Array as="points">
              <mxPoint x="-17.299999999999958" y="1168.43" />
              <mxPoint x="-17.299999999999958" y="1271.43" />
              <mxPoint x="182.70000000000005" y="1271.43" />
            </Array>
          </mxGeometry>
        </mxCell>
        <mxCell id="cPcfAjtjWZPND-h-7DuE-13" value="" style="ellipse;whiteSpace=wrap;html=1;" parent="1" vertex="1">
          <mxGeometry x="19.470000000000024" y="1163.43" width="10" height="10" as="geometry" />
        </mxCell>
        <mxCell id="cPcfAjtjWZPND-h-7DuE-58" style="edgeStyle=orthogonalEdgeStyle;rounded=0;orthogonalLoop=1;jettySize=auto;html=1;entryX=0.5;entryY=0;entryDx=0;entryDy=0;" parent="1" source="cPcfAjtjWZPND-h-7DuE-27" target="cPcfAjtjWZPND-h-7DuE-43" edge="1">
          <mxGeometry relative="1" as="geometry" />
        </mxCell>
        <mxCell id="wiZbRn3czuT7aPxp2I1O-6" value="" style="edgeStyle=orthogonalEdgeStyle;rounded=0;orthogonalLoop=1;jettySize=auto;html=1;" edge="1" parent="1" source="cPcfAjtjWZPND-h-7DuE-27" target="vFcfeuhQWlRrU4Buawmt-52">
          <mxGeometry relative="1" as="geometry" />
        </mxCell>
        <mxCell id="cPcfAjtjWZPND-h-7DuE-27" value="flag_blanc = 1" style="shape=mxgraph.flowchart.decision;strokeWidth=2;gradientColor=none;gradientDirection=north;fontStyle=0;html=1;" parent="1" vertex="1">
          <mxGeometry x="398.89" y="1014.93" width="120.1" height="67" as="geometry" />
        </mxCell>
        <mxCell id="cPcfAjtjWZPND-h-7DuE-28" value="" style="ellipse;whiteSpace=wrap;html=1;" parent="1" vertex="1">
          <mxGeometry x="387.5099999999999" y="1043.43" width="10" height="10" as="geometry" />
        </mxCell>
        <mxCell id="vFcfeuhQWlRrU4Buawmt-64" style="edgeStyle=orthogonalEdgeStyle;rounded=0;orthogonalLoop=1;jettySize=auto;html=1;entryX=1;entryY=0.5;entryDx=0;entryDy=0;" parent="1" source="cPcfAjtjWZPND-h-7DuE-43" target="cPcfAjtjWZPND-h-7DuE-60" edge="1">
          <mxGeometry relative="1" as="geometry">
            <Array as="points">
              <mxPoint x="685.75" y="1370.93" />
            </Array>
          </mxGeometry>
        </mxCell>
        <mxCell id="cPcfAjtjWZPND-h-7DuE-43" value="&lt;div style=&quot;text-wrap: nowrap;&quot;&gt;whites[nb_conversions] = mesure_adc1&lt;/div&gt;" style="rounded=0;whiteSpace=wrap;html=1;" parent="1" vertex="1">
          <mxGeometry x="572.75" y="1152.18" width="225.73" height="32.5" as="geometry" />
        </mxCell>
        <mxCell id="cPcfAjtjWZPND-h-7DuE-57" style="edgeStyle=orthogonalEdgeStyle;rounded=0;orthogonalLoop=1;jettySize=auto;html=1;entryX=0.5;entryY=0;entryDx=0;entryDy=0;entryPerimeter=0;" parent="1" source="cPcfAjtjWZPND-h-7DuE-28" target="cPcfAjtjWZPND-h-7DuE-10" edge="1">
          <mxGeometry relative="1" as="geometry" />
        </mxCell>
        <mxCell id="cPcfAjtjWZPND-h-7DuE-59" value="end" style="shape=mxgraph.flowchart.terminator;strokeWidth=2;gradientColor=none;gradientDirection=north;fontStyle=0;html=1;" parent="1" vertex="1">
          <mxGeometry x="403.88" y="1534.93" width="40" height="23.5" as="geometry" />
        </mxCell>
        <mxCell id="cPcfAjtjWZPND-h-7DuE-60" value="&lt;div style=&quot;text-wrap: nowrap;&quot;&gt;nb_conversions ++&lt;/div&gt;" style="rounded=0;whiteSpace=wrap;html=1;" parent="1" vertex="1">
          <mxGeometry x="363.88" y="1354.93" width="120" height="32.5" as="geometry" />
        </mxCell>
        <mxCell id="cPcfAjtjWZPND-h-7DuE-71" value="Mesure sans la led IR correspondante allumee" style="text;html=1;align=center;verticalAlign=middle;whiteSpace=wrap;rounded=0;" parent="1" vertex="1">
          <mxGeometry x="758.24" y="1044.93" width="111.54" height="50" as="geometry" />
        </mxCell>
        <mxCell id="cPcfAjtjWZPND-h-7DuE-72" value="mesure IR en retranchant la mesure faite lors du blanc. La led IR correspondante est allumee par le callback timer5 avant demarrage de la conversion adc" style="text;html=1;align=center;verticalAlign=middle;whiteSpace=wrap;rounded=0;" parent="1" vertex="1">
          <mxGeometry x="-77.25" y="1054.93" width="151.54" height="50" as="geometry" />
        </mxCell>
        <mxCell id="vFcfeuhQWlRrU4Buawmt-20" style="edgeStyle=orthogonalEdgeStyle;rounded=0;orthogonalLoop=1;jettySize=auto;html=1;" parent="1" source="vFcfeuhQWlRrU4Buawmt-18" edge="1">
          <mxGeometry relative="1" as="geometry">
            <mxPoint x="206.13" y="195.93" as="targetPoint" />
            <Array as="points">
              <mxPoint x="206.13" y="151.93" />
            </Array>
          </mxGeometry>
        </mxCell>
        <mxCell id="vFcfeuhQWlRrU4Buawmt-21" style="edgeStyle=orthogonalEdgeStyle;rounded=0;orthogonalLoop=1;jettySize=auto;html=1;" parent="1" source="vFcfeuhQWlRrU4Buawmt-18" edge="1">
          <mxGeometry relative="1" as="geometry">
            <mxPoint x="384.485" y="205.93" as="targetPoint" />
          </mxGeometry>
        </mxCell>
        <mxCell id="vFcfeuhQWlRrU4Buawmt-22" style="edgeStyle=orthogonalEdgeStyle;rounded=0;orthogonalLoop=1;jettySize=auto;html=1;" parent="1" source="vFcfeuhQWlRrU4Buawmt-18" edge="1">
          <mxGeometry relative="1" as="geometry">
            <mxPoint x="576.4719220753205" y="195.93" as="targetPoint" />
          </mxGeometry>
        </mxCell>
        <mxCell id="vFcfeuhQWlRrU4Buawmt-18" value="etat" style="shape=mxgraph.flowchart.decision;strokeWidth=2;gradientColor=none;gradientDirection=north;fontStyle=0;html=1;" parent="1" vertex="1">
          <mxGeometry x="306.7300000000001" y="123.86000000000001" width="155.51" height="57" as="geometry" />
        </mxCell>
        <mxCell id="vFcfeuhQWlRrU4Buawmt-19" style="edgeStyle=orthogonalEdgeStyle;rounded=0;orthogonalLoop=1;jettySize=auto;html=1;entryX=0.5;entryY=0;entryDx=0;entryDy=0;entryPerimeter=0;" parent="1" source="-0f1KGy7K0RT9wXaaAmC-17" target="vFcfeuhQWlRrU4Buawmt-18" edge="1">
          <mxGeometry relative="1" as="geometry" />
        </mxCell>
        <mxCell id="vFcfeuhQWlRrU4Buawmt-23" value="BLANC" style="text;html=1;align=center;verticalAlign=middle;whiteSpace=wrap;rounded=0;" parent="1" vertex="1">
          <mxGeometry x="226.13" y="115.35999999999996" width="60" height="30" as="geometry" />
        </mxCell>
        <mxCell id="vFcfeuhQWlRrU4Buawmt-24" value="ALLUMER_LEDS" style="text;html=1;align=center;verticalAlign=middle;whiteSpace=wrap;rounded=0;" parent="1" vertex="1">
          <mxGeometry x="422.18" y="167.10999999999996" width="60" height="30" as="geometry" />
        </mxCell>
        <mxCell id="vFcfeuhQWlRrU4Buawmt-25" value="MESURES" style="text;html=1;align=center;verticalAlign=middle;whiteSpace=wrap;rounded=0;" parent="1" vertex="1">
          <mxGeometry x="481.13" y="123.85999999999996" width="80" height="30" as="geometry" />
        </mxCell>
        <mxCell id="vFcfeuhQWlRrU4Buawmt-37" style="edgeStyle=orthogonalEdgeStyle;rounded=0;orthogonalLoop=1;jettySize=auto;html=1;entryX=0.5;entryY=0;entryDx=0;entryDy=0;" parent="1" source="vFcfeuhQWlRrU4Buawmt-26" target="vFcfeuhQWlRrU4Buawmt-35" edge="1">
          <mxGeometry relative="1" as="geometry" />
        </mxCell>
        <mxCell id="vFcfeuhQWlRrU4Buawmt-26" value="allumage des leds" style="rounded=0;whiteSpace=wrap;html=1;" parent="1" vertex="1">
          <mxGeometry x="351.86" y="204.35999999999996" width="65.25" height="31.57" as="geometry" />
        </mxCell>
        <mxCell id="vFcfeuhQWlRrU4Buawmt-29" style="edgeStyle=orthogonalEdgeStyle;rounded=0;orthogonalLoop=1;jettySize=auto;html=1;" parent="1" source="vFcfeuhQWlRrU4Buawmt-27" target="vFcfeuhQWlRrU4Buawmt-28" edge="1">
          <mxGeometry relative="1" as="geometry" />
        </mxCell>
        <mxCell id="vFcfeuhQWlRrU4Buawmt-27" value="flag_blanc = 1" style="rounded=0;whiteSpace=wrap;html=1;" parent="1" vertex="1">
          <mxGeometry x="171.68" y="197.10999999999996" width="84.45" height="31.57" as="geometry" />
        </mxCell>
        <mxCell id="vFcfeuhQWlRrU4Buawmt-32" style="edgeStyle=orthogonalEdgeStyle;rounded=0;orthogonalLoop=1;jettySize=auto;html=1;" parent="1" source="vFcfeuhQWlRrU4Buawmt-28" edge="1">
          <mxGeometry relative="1" as="geometry">
            <mxPoint x="213.98185185185173" y="302.29" as="targetPoint" />
          </mxGeometry>
        </mxCell>
        <mxCell id="vFcfeuhQWlRrU4Buawmt-28" value="ADC1_Start_IT" style="rounded=0;whiteSpace=wrap;html=1;" parent="1" vertex="1">
          <mxGeometry x="166.68" y="247.82999999999998" width="94.45" height="31.57" as="geometry" />
        </mxCell>
        <mxCell id="vFcfeuhQWlRrU4Buawmt-33" value="etat = ALLUMER_LEDS" style="rounded=0;whiteSpace=wrap;html=1;" parent="1" vertex="1">
          <mxGeometry x="160" y="302.29" width="107.81" height="31.57" as="geometry" />
        </mxCell>
        <mxCell id="vFcfeuhQWlRrU4Buawmt-35" value="etat = MESURES" style="rounded=0;whiteSpace=wrap;html=1;" parent="1" vertex="1">
          <mxGeometry x="330.58000000000004" y="302.29" width="107.81" height="31.57" as="geometry" />
        </mxCell>
        <mxCell id="vFcfeuhQWlRrU4Buawmt-44" style="edgeStyle=orthogonalEdgeStyle;rounded=0;orthogonalLoop=1;jettySize=auto;html=1;" parent="1" source="vFcfeuhQWlRrU4Buawmt-36" edge="1">
          <mxGeometry relative="1" as="geometry">
            <mxPoint x="406.13" y="425.93" as="targetPoint" />
            <Array as="points">
              <mxPoint x="576.13" y="425.93" />
            </Array>
          </mxGeometry>
        </mxCell>
        <mxCell id="vFcfeuhQWlRrU4Buawmt-36" value="etat = BLANC" style="rounded=0;whiteSpace=wrap;html=1;" parent="1" vertex="1">
          <mxGeometry x="521.13" y="302.29" width="107.81" height="31.57" as="geometry" />
        </mxCell>
        <mxCell id="vFcfeuhQWlRrU4Buawmt-40" style="edgeStyle=orthogonalEdgeStyle;rounded=0;orthogonalLoop=1;jettySize=auto;html=1;entryX=0.5;entryY=0;entryDx=0;entryDy=0;" parent="1" source="vFcfeuhQWlRrU4Buawmt-38" target="vFcfeuhQWlRrU4Buawmt-39" edge="1">
          <mxGeometry relative="1" as="geometry" />
        </mxCell>
        <mxCell id="vFcfeuhQWlRrU4Buawmt-38" value="flag_blanc = 0" style="rounded=0;whiteSpace=wrap;html=1;" parent="1" vertex="1">
          <mxGeometry x="532.8100000000001" y="197.10999999999996" width="84.45" height="31.57" as="geometry" />
        </mxCell>
        <mxCell id="vFcfeuhQWlRrU4Buawmt-41" style="edgeStyle=orthogonalEdgeStyle;rounded=0;orthogonalLoop=1;jettySize=auto;html=1;entryX=0.5;entryY=0;entryDx=0;entryDy=0;" parent="1" source="vFcfeuhQWlRrU4Buawmt-39" target="vFcfeuhQWlRrU4Buawmt-36" edge="1">
          <mxGeometry relative="1" as="geometry" />
        </mxCell>
        <mxCell id="vFcfeuhQWlRrU4Buawmt-39" value="ADC1_Start_IT" style="rounded=0;whiteSpace=wrap;html=1;" parent="1" vertex="1">
          <mxGeometry x="527.8100000000001" y="247.82999999999998" width="94.45" height="31.57" as="geometry" />
        </mxCell>
        <mxCell id="vFcfeuhQWlRrU4Buawmt-42" style="edgeStyle=orthogonalEdgeStyle;rounded=0;orthogonalLoop=1;jettySize=auto;html=1;entryX=0;entryY=0.5;entryDx=0;entryDy=0;entryPerimeter=0;" parent="1" source="vFcfeuhQWlRrU4Buawmt-33" target="-0f1KGy7K0RT9wXaaAmC-19" edge="1">
          <mxGeometry relative="1" as="geometry">
            <Array as="points">
              <mxPoint x="214.13" y="425.93" />
            </Array>
          </mxGeometry>
        </mxCell>
        <mxCell id="vFcfeuhQWlRrU4Buawmt-43" style="edgeStyle=orthogonalEdgeStyle;rounded=0;orthogonalLoop=1;jettySize=auto;html=1;entryX=0.5;entryY=0;entryDx=0;entryDy=0;entryPerimeter=0;" parent="1" source="vFcfeuhQWlRrU4Buawmt-35" target="-0f1KGy7K0RT9wXaaAmC-19" edge="1">
          <mxGeometry relative="1" as="geometry" />
        </mxCell>
        <mxCell id="vFcfeuhQWlRrU4Buawmt-52" value="nb_conversions &amp;lt; 4" style="shape=mxgraph.flowchart.decision;strokeWidth=2;gradientColor=none;gradientDirection=north;fontStyle=0;html=1;" parent="1" vertex="1">
          <mxGeometry x="378.79999999999995" y="911.93" width="155.34" height="67" as="geometry" />
        </mxCell>
        <mxCell id="vFcfeuhQWlRrU4Buawmt-53" style="edgeStyle=orthogonalEdgeStyle;rounded=0;orthogonalLoop=1;jettySize=auto;html=1;entryX=0.5;entryY=0;entryDx=0;entryDy=0;entryPerimeter=0;" parent="1" source="vFcfeuhQWlRrU4Buawmt-52" target="cPcfAjtjWZPND-h-7DuE-27" edge="1">
          <mxGeometry relative="1" as="geometry" />
        </mxCell>
        <mxCell id="vFcfeuhQWlRrU4Buawmt-54" style="edgeStyle=orthogonalEdgeStyle;rounded=0;orthogonalLoop=1;jettySize=auto;html=1;entryX=0.5;entryY=0;entryDx=0;entryDy=0;entryPerimeter=0;" parent="1" source="cPcfAjtjWZPND-h-7DuE-8" target="vFcfeuhQWlRrU4Buawmt-52" edge="1">
          <mxGeometry relative="1" as="geometry" />
        </mxCell>
        <mxCell id="vFcfeuhQWlRrU4Buawmt-55" value="" style="ellipse;whiteSpace=wrap;html=1;" parent="1" vertex="1">
          <mxGeometry x="532.7499999999999" y="940.43" width="10" height="10" as="geometry" />
        </mxCell>
        <mxCell id="vFcfeuhQWlRrU4Buawmt-72" style="edgeStyle=orthogonalEdgeStyle;rounded=0;orthogonalLoop=1;jettySize=auto;html=1;" parent="1" source="vFcfeuhQWlRrU4Buawmt-56" target="vFcfeuhQWlRrU4Buawmt-60" edge="1">
          <mxGeometry relative="1" as="geometry" />
        </mxCell>
        <mxCell id="vFcfeuhQWlRrU4Buawmt-56" value="&lt;div style=&quot;text-wrap: nowrap;&quot;&gt;vbatt = mesure_adc1&lt;/div&gt;" style="rounded=0;whiteSpace=wrap;html=1;" parent="1" vertex="1">
          <mxGeometry x="961.8699999999999" y="1104.93" width="139.76" height="32.5" as="geometry" />
        </mxCell>
        <mxCell id="vFcfeuhQWlRrU4Buawmt-60" value="&lt;div style=&quot;text-wrap: nowrap;&quot;&gt;&lt;span style=&quot;background-color: initial;&quot;&gt;nb_conversions = 0&lt;/span&gt;&lt;br&gt;&lt;/div&gt;" style="rounded=0;whiteSpace=wrap;html=1;" parent="1" vertex="1">
          <mxGeometry x="971.75" y="1163.43" width="120" height="32.5" as="geometry" />
        </mxCell>
        <mxCell id="vFcfeuhQWlRrU4Buawmt-71" style="edgeStyle=orthogonalEdgeStyle;rounded=0;orthogonalLoop=1;jettySize=auto;html=1;entryX=0.556;entryY=-0.083;entryDx=0;entryDy=0;entryPerimeter=0;" parent="1" source="vFcfeuhQWlRrU4Buawmt-52" target="vFcfeuhQWlRrU4Buawmt-56" edge="1">
          <mxGeometry relative="1" as="geometry" />
        </mxCell>
        <mxCell id="vFcfeuhQWlRrU4Buawmt-73" style="edgeStyle=orthogonalEdgeStyle;rounded=0;orthogonalLoop=1;jettySize=auto;html=1;entryX=1;entryY=0.5;entryDx=0;entryDy=0;entryPerimeter=0;" parent="1" source="vFcfeuhQWlRrU4Buawmt-60" target="cPcfAjtjWZPND-h-7DuE-59" edge="1">
          <mxGeometry relative="1" as="geometry">
            <Array as="points">
              <mxPoint x="1031.75" y="1546.93" />
            </Array>
          </mxGeometry>
        </mxCell>
        <mxCell id="vFcfeuhQWlRrU4Buawmt-74" style="edgeStyle=orthogonalEdgeStyle;rounded=0;orthogonalLoop=1;jettySize=auto;html=1;entryX=0.5;entryY=0;entryDx=0;entryDy=0;entryPerimeter=0;" parent="1" source="cPcfAjtjWZPND-h-7DuE-60" target="cPcfAjtjWZPND-h-7DuE-59" edge="1">
          <mxGeometry relative="1" as="geometry" />
        </mxCell>
      </root>
    </mxGraphModel>
  </diagram>
  <diagram id="fwajdhg1Ctom6rU5jJy7" name="Version analog watchdog">
    <mxGraphModel dx="780" dy="496" grid="1" gridSize="10" guides="1" tooltips="1" connect="1" arrows="1" fold="1" page="1" pageScale="1" pageWidth="827" pageHeight="1169" math="0" shadow="0">
      <root>
        <mxCell id="0" />
        <mxCell id="1" parent="0" />
        <mxCell id="2FrkAtfenKJV1ST329Zv-1" value="main" style="shape=mxgraph.flowchart.terminator;strokeWidth=2;gradientColor=none;gradientDirection=north;fontStyle=0;html=1;" parent="1" vertex="1">
          <mxGeometry x="238.18" y="63.5" width="120" height="30" as="geometry" />
        </mxCell>
        <mxCell id="2FrkAtfenKJV1ST329Zv-2" value="GO?" style="shape=mxgraph.flowchart.decision;strokeWidth=2;gradientColor=none;gradientDirection=north;fontStyle=0;html=1;" parent="1" vertex="1">
          <mxGeometry x="249.25" y="283.5" width="98" height="57" as="geometry" />
        </mxCell>
        <mxCell id="2FrkAtfenKJV1ST329Zv-4" value="&lt;span style=&quot;text-wrap: nowrap;&quot;&gt;GPIO_init&lt;/span&gt;&lt;div style=&quot;text-wrap: nowrap;&quot;&gt;timer6 en base de temps 100 ms&lt;/div&gt;&lt;div style=&quot;text-wrap: nowrap;&quot;&gt;ADC en single 8 bits sur Vbatt&lt;/div&gt;&lt;div style=&quot;text-wrap: nowrap;&quot;&gt;&lt;span style=&quot;background-color: initial;&quot;&gt;UART2_init 115200 baud&lt;/span&gt;&lt;br&gt;&lt;/div&gt;&lt;div style=&quot;text-wrap: nowrap;&quot;&gt;&lt;span style=&quot;background-color: initial;&quot;&gt;timer2 en PWM 1kHz, RC=?&lt;/span&gt;&lt;/div&gt;&lt;div style=&quot;text-wrap: nowrap;&quot;&gt;&lt;br&gt;&lt;/div&gt;&lt;div style=&quot;text-wrap: nowrap;&quot;&gt;variable globale uint_8 mesures_IR = 0&lt;/div&gt;&lt;div style=&quot;text-wrap: nowrap;&quot;&gt;variable globale uint_8 nb_mesures = 0&lt;/div&gt;" style="rounded=0;whiteSpace=wrap;html=1;" parent="1" vertex="1">
          <mxGeometry x="183.25" y="113.5" width="230" height="130" as="geometry" />
        </mxCell>
        <mxCell id="2FrkAtfenKJV1ST329Zv-5" value="" style="endArrow=classic;html=1;rounded=0;exitX=0.5;exitY=1;exitDx=0;exitDy=0;exitPerimeter=0;entryX=0.5;entryY=0;entryDx=0;entryDy=0;" parent="1" source="2FrkAtfenKJV1ST329Zv-1" target="2FrkAtfenKJV1ST329Zv-4" edge="1">
          <mxGeometry width="50" height="50" relative="1" as="geometry">
            <mxPoint x="478.18" y="313.5" as="sourcePoint" />
            <mxPoint x="528.18" y="263.5" as="targetPoint" />
          </mxGeometry>
        </mxCell>
        <mxCell id="2FrkAtfenKJV1ST329Zv-6" value="" style="ellipse;whiteSpace=wrap;html=1;" parent="1" vertex="1">
          <mxGeometry x="237.75" y="307" width="10" height="10" as="geometry" />
        </mxCell>
        <mxCell id="2FrkAtfenKJV1ST329Zv-7" value="" style="endArrow=classic;html=1;rounded=0;" parent="1" edge="1">
          <mxGeometry width="50" height="50" relative="1" as="geometry">
            <mxPoint x="236.25" y="313.5" as="sourcePoint" />
            <mxPoint x="297" y="263.5" as="targetPoint" />
            <Array as="points">
              <mxPoint x="196.25" y="313.5" />
              <mxPoint x="196" y="263.5" />
              <mxPoint x="247" y="263.5" />
            </Array>
          </mxGeometry>
        </mxCell>
        <mxCell id="2FrkAtfenKJV1ST329Zv-8" value="PWM = 0" style="rounded=0;whiteSpace=wrap;html=1;" parent="1" vertex="1">
          <mxGeometry x="166.25" y="280" width="55" height="27" as="geometry" />
        </mxCell>
        <mxCell id="2FrkAtfenKJV1ST329Zv-9" style="edgeStyle=orthogonalEdgeStyle;rounded=0;orthogonalLoop=1;jettySize=auto;html=1;" parent="1" source="2FrkAtfenKJV1ST329Zv-11" edge="1">
          <mxGeometry relative="1" as="geometry">
            <mxPoint x="296.5" y="353.5" as="targetPoint" />
          </mxGeometry>
        </mxCell>
        <mxCell id="2FrkAtfenKJV1ST329Zv-10" style="edgeStyle=orthogonalEdgeStyle;rounded=0;orthogonalLoop=1;jettySize=auto;html=1;exitX=0.5;exitY=1;exitDx=0;exitDy=0;exitPerimeter=0;entryX=0.5;entryY=0;entryDx=0;entryDy=0;" parent="1" source="2FrkAtfenKJV1ST329Zv-11" target="2FrkAtfenKJV1ST329Zv-16" edge="1">
          <mxGeometry relative="1" as="geometry" />
        </mxCell>
        <mxCell id="2FrkAtfenKJV1ST329Zv-11" value="" style="shape=mxgraph.flowchart.decision;strokeWidth=2;gradientColor=none;gradientDirection=north;fontStyle=0;html=1;" parent="1" vertex="1">
          <mxGeometry x="247.5" y="363.5" width="98" height="57" as="geometry" />
        </mxCell>
        <mxCell id="2FrkAtfenKJV1ST329Zv-12" style="edgeStyle=orthogonalEdgeStyle;rounded=0;orthogonalLoop=1;jettySize=auto;html=1;exitX=0;exitY=0.5;exitDx=0;exitDy=0;" parent="1" source="2FrkAtfenKJV1ST329Zv-13" edge="1">
          <mxGeometry relative="1" as="geometry">
            <mxPoint x="297" y="563.5" as="targetPoint" />
            <Array as="points">
              <mxPoint x="186" y="392.5" />
              <mxPoint x="186" y="563.5" />
              <mxPoint x="296" y="563.5" />
            </Array>
          </mxGeometry>
        </mxCell>
        <mxCell id="2FrkAtfenKJV1ST329Zv-13" value="" style="ellipse;whiteSpace=wrap;html=1;" parent="1" vertex="1">
          <mxGeometry x="236" y="387" width="10" height="10" as="geometry" />
        </mxCell>
        <mxCell id="2FrkAtfenKJV1ST329Zv-14" value="T_batt &amp;gt;50 ?" style="text;html=1;align=center;verticalAlign=middle;resizable=0;points=[];autosize=1;strokeColor=none;fillColor=none;" parent="1" vertex="1">
          <mxGeometry x="252.01" y="377" width="90" height="30" as="geometry" />
        </mxCell>
        <mxCell id="2FrkAtfenKJV1ST329Zv-15" style="edgeStyle=orthogonalEdgeStyle;rounded=0;orthogonalLoop=1;jettySize=auto;html=1;exitX=0.5;exitY=1;exitDx=0;exitDy=0;entryX=0.5;entryY=0;entryDx=0;entryDy=0;" parent="1" source="2FrkAtfenKJV1ST329Zv-16" target="2FrkAtfenKJV1ST329Zv-17" edge="1">
          <mxGeometry relative="1" as="geometry" />
        </mxCell>
        <mxCell id="2FrkAtfenKJV1ST329Zv-16" value="T_batt = 0" style="rounded=0;whiteSpace=wrap;html=1;" parent="1" vertex="1">
          <mxGeometry x="264.38" y="433.5" width="65.25" height="27" as="geometry" />
        </mxCell>
        <mxCell id="2FrkAtfenKJV1ST329Zv-17" value="ADC_Start" style="rounded=0;whiteSpace=wrap;html=1;" parent="1" vertex="1">
          <mxGeometry x="244.62" y="470.5" width="102.63" height="27" as="geometry" />
        </mxCell>
        <mxCell id="2FrkAtfenKJV1ST329Zv-22" style="edgeStyle=orthogonalEdgeStyle;rounded=0;orthogonalLoop=1;jettySize=auto;html=1;exitX=0.5;exitY=1;exitDx=0;exitDy=0;entryX=0.5;entryY=0;entryDx=0;entryDy=0;entryPerimeter=0;" parent="1" source="2FrkAtfenKJV1ST329Zv-17" edge="1">
          <mxGeometry relative="1" as="geometry">
            <mxPoint x="296.5" y="525.5" as="targetPoint" />
          </mxGeometry>
        </mxCell>
        <mxCell id="ZvTR0R66hKdRkJNTyXyK-1" style="edgeStyle=orthogonalEdgeStyle;rounded=0;orthogonalLoop=1;jettySize=auto;html=1;" parent="1" source="2FrkAtfenKJV1ST329Zv-32" edge="1">
          <mxGeometry relative="1" as="geometry">
            <mxPoint x="295.93499999999995" y="593.5" as="targetPoint" />
          </mxGeometry>
        </mxCell>
        <mxCell id="2FrkAtfenKJV1ST329Zv-32" value="printf ( vbatt )" style="rounded=0;whiteSpace=wrap;html=1;" parent="1" vertex="1">
          <mxGeometry x="244.61999999999998" y="523.5" width="102.63" height="27" as="geometry" />
        </mxCell>
        <mxCell id="2FrkAtfenKJV1ST329Zv-35" value="" style="endArrow=none;html=1;rounded=0;edgeStyle=orthogonalEdgeStyle;exitX=0.5;exitY=1;exitDx=0;exitDy=0;" parent="1" source="ZvTR0R66hKdRkJNTyXyK-14" edge="1">
          <mxGeometry width="50" height="50" relative="1" as="geometry">
            <mxPoint x="297" y="923.5" as="sourcePoint" />
            <mxPoint x="196" y="273.5" as="targetPoint" />
            <Array as="points">
              <mxPoint x="296" y="913.5" />
              <mxPoint x="97" y="913.5" />
              <mxPoint x="97" y="263.5" />
              <mxPoint x="196" y="263.5" />
            </Array>
          </mxGeometry>
        </mxCell>
        <mxCell id="2FrkAtfenKJV1ST329Zv-38" style="edgeStyle=orthogonalEdgeStyle;rounded=0;orthogonalLoop=1;jettySize=auto;html=1;exitX=0.5;exitY=1;exitDx=0;exitDy=0;exitPerimeter=0;entryX=0.5;entryY=0;entryDx=0;entryDy=0;" parent="1" source="2FrkAtfenKJV1ST329Zv-39" target="2FrkAtfenKJV1ST329Zv-40" edge="1">
          <mxGeometry relative="1" as="geometry" />
        </mxCell>
        <mxCell id="2FrkAtfenKJV1ST329Zv-39" value="Calback EXt BP1" style="shape=mxgraph.flowchart.terminator;strokeWidth=2;gradientColor=none;gradientDirection=north;fontStyle=0;html=1;" parent="1" vertex="1">
          <mxGeometry x="639" y="150" width="120" height="30" as="geometry" />
        </mxCell>
        <mxCell id="2FrkAtfenKJV1ST329Zv-40" value="/GO" style="rounded=0;whiteSpace=wrap;html=1;" parent="1" vertex="1">
          <mxGeometry x="666.38" y="195" width="65.25" height="27" as="geometry" />
        </mxCell>
        <mxCell id="2FrkAtfenKJV1ST329Zv-41" value="end" style="shape=mxgraph.flowchart.terminator;strokeWidth=2;gradientColor=none;gradientDirection=north;fontStyle=0;html=1;" parent="1" vertex="1">
          <mxGeometry x="679.01" y="236.5" width="40" height="23.5" as="geometry" />
        </mxCell>
        <mxCell id="2FrkAtfenKJV1ST329Zv-42" style="edgeStyle=orthogonalEdgeStyle;rounded=0;orthogonalLoop=1;jettySize=auto;html=1;exitX=0.5;exitY=1;exitDx=0;exitDy=0;entryX=0.5;entryY=0;entryDx=0;entryDy=0;entryPerimeter=0;" parent="1" source="2FrkAtfenKJV1ST329Zv-40" target="2FrkAtfenKJV1ST329Zv-41" edge="1">
          <mxGeometry relative="1" as="geometry" />
        </mxCell>
        <mxCell id="2FrkAtfenKJV1ST329Zv-43" style="edgeStyle=orthogonalEdgeStyle;rounded=0;orthogonalLoop=1;jettySize=auto;html=1;exitX=0.5;exitY=1;exitDx=0;exitDy=0;exitPerimeter=0;entryX=0.5;entryY=0;entryDx=0;entryDy=0;" parent="1" source="2FrkAtfenKJV1ST329Zv-44" target="2FrkAtfenKJV1ST329Zv-45" edge="1">
          <mxGeometry relative="1" as="geometry" />
        </mxCell>
        <mxCell id="2FrkAtfenKJV1ST329Zv-44" value="Calback Tim6" style="shape=mxgraph.flowchart.terminator;strokeWidth=2;gradientColor=none;gradientDirection=north;fontStyle=0;html=1;" parent="1" vertex="1">
          <mxGeometry x="639" y="288.5" width="120" height="30" as="geometry" />
        </mxCell>
        <mxCell id="2FrkAtfenKJV1ST329Zv-45" value="T_batt++" style="rounded=0;whiteSpace=wrap;html=1;" parent="1" vertex="1">
          <mxGeometry x="666.38" y="333.5" width="65.25" height="27" as="geometry" />
        </mxCell>
        <mxCell id="2FrkAtfenKJV1ST329Zv-46" value="end" style="shape=mxgraph.flowchart.terminator;strokeWidth=2;gradientColor=none;gradientDirection=north;fontStyle=0;html=1;" parent="1" vertex="1">
          <mxGeometry x="679.01" y="375" width="40" height="23.5" as="geometry" />
        </mxCell>
        <mxCell id="2FrkAtfenKJV1ST329Zv-47" style="edgeStyle=orthogonalEdgeStyle;rounded=0;orthogonalLoop=1;jettySize=auto;html=1;exitX=0.5;exitY=1;exitDx=0;exitDy=0;entryX=0.5;entryY=0;entryDx=0;entryDy=0;entryPerimeter=0;" parent="1" source="2FrkAtfenKJV1ST329Zv-45" target="2FrkAtfenKJV1ST329Zv-46" edge="1">
          <mxGeometry relative="1" as="geometry" />
        </mxCell>
        <mxCell id="2FrkAtfenKJV1ST329Zv-48" style="edgeStyle=orthogonalEdgeStyle;rounded=0;orthogonalLoop=1;jettySize=auto;html=1;exitX=0.5;exitY=1;exitDx=0;exitDy=0;exitPerimeter=0;entryX=0.5;entryY=0;entryDx=0;entryDy=0;" parent="1" target="2FrkAtfenKJV1ST329Zv-50" edge="1">
          <mxGeometry relative="1" as="geometry">
            <mxPoint x="729.99" y="460" as="sourcePoint" />
          </mxGeometry>
        </mxCell>
        <mxCell id="2FrkAtfenKJV1ST329Zv-49" value="Calback analog watchdog" style="shape=mxgraph.flowchart.terminator;strokeWidth=2;gradientColor=none;gradientDirection=north;fontStyle=0;html=1;" parent="1" vertex="1">
          <mxGeometry x="639" y="430" width="151" height="30" as="geometry" />
        </mxCell>
        <mxCell id="2FrkAtfenKJV1ST329Zv-50" value="LED on" style="rounded=0;whiteSpace=wrap;html=1;" parent="1" vertex="1">
          <mxGeometry x="681.87" y="475" width="65.25" height="27" as="geometry" />
        </mxCell>
        <mxCell id="2FrkAtfenKJV1ST329Zv-51" value="end" style="shape=mxgraph.flowchart.terminator;strokeWidth=2;gradientColor=none;gradientDirection=north;fontStyle=0;html=1;" parent="1" vertex="1">
          <mxGeometry x="694.5" y="516.5" width="40" height="23.5" as="geometry" />
        </mxCell>
        <mxCell id="2FrkAtfenKJV1ST329Zv-52" style="edgeStyle=orthogonalEdgeStyle;rounded=0;orthogonalLoop=1;jettySize=auto;html=1;exitX=0.5;exitY=1;exitDx=0;exitDy=0;entryX=0.5;entryY=0;entryDx=0;entryDy=0;entryPerimeter=0;" parent="1" source="2FrkAtfenKJV1ST329Zv-50" target="2FrkAtfenKJV1ST329Zv-51" edge="1">
          <mxGeometry relative="1" as="geometry" />
        </mxCell>
        <mxCell id="ZvTR0R66hKdRkJNTyXyK-2" value="// avancer tout droit&lt;div&gt;DIS1 = 0;&lt;/div&gt;&lt;div&gt;DIS2 = 0;&lt;/div&gt;" style="rounded=0;whiteSpace=wrap;html=1;" parent="1" vertex="1">
          <mxGeometry x="230.03" y="593" width="131.81" height="60.5" as="geometry" />
        </mxCell>
        <mxCell id="ZvTR0R66hKdRkJNTyXyK-3" style="edgeStyle=orthogonalEdgeStyle;rounded=0;orthogonalLoop=1;jettySize=auto;html=1;entryX=0.5;entryY=0;entryDx=0;entryDy=0;entryPerimeter=0;" parent="1" source="2FrkAtfenKJV1ST329Zv-4" target="2FrkAtfenKJV1ST329Zv-2" edge="1">
          <mxGeometry relative="1" as="geometry" />
        </mxCell>
        <mxCell id="ZvTR0R66hKdRkJNTyXyK-13" style="edgeStyle=orthogonalEdgeStyle;rounded=0;orthogonalLoop=1;jettySize=auto;html=1;entryX=0.5;entryY=0;entryDx=0;entryDy=0;" parent="1" source="ZvTR0R66hKdRkJNTyXyK-4" target="ZvTR0R66hKdRkJNTyXyK-12" edge="1">
          <mxGeometry relative="1" as="geometry" />
        </mxCell>
        <mxCell id="ZvTR0R66hKdRkJNTyXyK-4" value="mesures_IR &amp;gt; 0" style="shape=mxgraph.flowchart.decision;strokeWidth=2;gradientColor=none;gradientDirection=north;fontStyle=0;html=1;" parent="1" vertex="1">
          <mxGeometry x="220.9" y="683.5" width="150.07" height="57" as="geometry" />
        </mxCell>
        <mxCell id="ZvTR0R66hKdRkJNTyXyK-5" style="edgeStyle=orthogonalEdgeStyle;rounded=0;orthogonalLoop=1;jettySize=auto;html=1;entryX=0.5;entryY=0;entryDx=0;entryDy=0;entryPerimeter=0;" parent="1" source="ZvTR0R66hKdRkJNTyXyK-2" target="ZvTR0R66hKdRkJNTyXyK-4" edge="1">
          <mxGeometry relative="1" as="geometry" />
        </mxCell>
        <mxCell id="ZvTR0R66hKdRkJNTyXyK-11" style="edgeStyle=orthogonalEdgeStyle;rounded=0;orthogonalLoop=1;jettySize=auto;html=1;" parent="1" source="ZvTR0R66hKdRkJNTyXyK-6" edge="1">
          <mxGeometry relative="1" as="geometry">
            <mxPoint x="297" y="663.5" as="targetPoint" />
            <Array as="points">
              <mxPoint x="376" y="663.5" />
            </Array>
          </mxGeometry>
        </mxCell>
        <mxCell id="ZvTR0R66hKdRkJNTyXyK-6" value="" style="ellipse;whiteSpace=wrap;html=1;" parent="1" vertex="1">
          <mxGeometry x="370.97" y="707" width="10" height="10" as="geometry" />
        </mxCell>
        <mxCell id="ZvTR0R66hKdRkJNTyXyK-15" style="edgeStyle=orthogonalEdgeStyle;rounded=0;orthogonalLoop=1;jettySize=auto;html=1;entryX=0.5;entryY=0;entryDx=0;entryDy=0;" parent="1" source="ZvTR0R66hKdRkJNTyXyK-12" target="ZvTR0R66hKdRkJNTyXyK-14" edge="1">
          <mxGeometry relative="1" as="geometry" />
        </mxCell>
        <mxCell id="ZvTR0R66hKdRkJNTyXyK-12" value="// arrÃªt&lt;div&gt;DIS1 = 1;&lt;/div&gt;&lt;div&gt;DIS2 = 1;&lt;/div&gt;" style="rounded=0;whiteSpace=wrap;html=1;" parent="1" vertex="1">
          <mxGeometry x="230.03" y="763.5" width="131.81" height="50" as="geometry" />
        </mxCell>
        <mxCell id="ZvTR0R66hKdRkJNTyXyK-14" value="// correction de trajectoire" style="rounded=0;whiteSpace=wrap;html=1;" parent="1" vertex="1">
          <mxGeometry x="222.45" y="843.5" width="146.97" height="30" as="geometry" />
        </mxCell>
      </root>
    </mxGraphModel>
  </diagram>
</mxfile>
